<mxfile host="Electron" agent="Mozilla/5.0 (X11; Linux x86_64) AppleWebKit/537.36 (KHTML, like Gecko) draw.io/24.7.8 Chrome/128.0.6613.36 Electron/32.0.1 Safari/537.36" version="24.7.8">
  <diagram name="Page-1" id="JlOhZGYyg8t6z8P1lJAe">
    <mxGraphModel dx="941" dy="581" grid="1" gridSize="10" guides="1" tooltips="1" connect="1" arrows="1" fold="1" page="1" pageScale="1" pageWidth="850" pageHeight="1100" math="0" shadow="0">
      <root>
        <mxCell id="0" />
        <mxCell id="1" parent="0" />
        <mxCell id="LX6SoAROBL8JEhYAQU-P-23" value="Bus App" style="rounded=0;whiteSpace=wrap;html=1;verticalAlign=top;fontStyle=1;fontSize=14;" vertex="1" parent="1">
          <mxGeometry x="230" y="90" width="180" height="250" as="geometry" />
        </mxCell>
        <mxCell id="LX6SoAROBL8JEhYAQU-P-9" value="fetch data" style="edgeStyle=orthogonalEdgeStyle;rounded=0;orthogonalLoop=1;jettySize=auto;html=1;entryX=0;entryY=0.5;entryDx=0;entryDy=0;startArrow=classic;startFill=1;" edge="1" parent="1" source="LX6SoAROBL8JEhYAQU-P-1" target="LX6SoAROBL8JEhYAQU-P-6">
          <mxGeometry relative="1" as="geometry" />
        </mxCell>
        <mxCell id="LX6SoAROBL8JEhYAQU-P-11" value="arrival time" style="edgeStyle=orthogonalEdgeStyle;rounded=0;orthogonalLoop=1;jettySize=auto;html=1;entryX=0.5;entryY=0;entryDx=0;entryDy=0;" edge="1" parent="1" source="LX6SoAROBL8JEhYAQU-P-1" target="LX6SoAROBL8JEhYAQU-P-10">
          <mxGeometry relative="1" as="geometry" />
        </mxCell>
        <mxCell id="LX6SoAROBL8JEhYAQU-P-1" value="bus arrival" style="rounded=0;whiteSpace=wrap;html=1;fillColor=#dae8fc;strokeColor=#6c8ebf;" vertex="1" parent="1">
          <mxGeometry x="250" y="130" width="120" height="60" as="geometry" />
        </mxCell>
        <mxCell id="LX6SoAROBL8JEhYAQU-P-4" value="" style="group" vertex="1" connectable="0" parent="1">
          <mxGeometry x="100" y="130" width="60" height="100" as="geometry" />
        </mxCell>
        <mxCell id="LX6SoAROBL8JEhYAQU-P-2" value="User Request" style="text;html=1;align=center;verticalAlign=middle;whiteSpace=wrap;rounded=0;" vertex="1" parent="LX6SoAROBL8JEhYAQU-P-4">
          <mxGeometry y="70" width="60" height="30" as="geometry" />
        </mxCell>
        <mxCell id="LX6SoAROBL8JEhYAQU-P-3" value="" style="shape=mxgraph.signs.people.man_2;html=1;pointerEvents=1;fillColor=#000000;strokeColor=none;verticalLabelPosition=bottom;verticalAlign=top;align=center;" vertex="1" parent="LX6SoAROBL8JEhYAQU-P-4">
          <mxGeometry x="19.090000000000003" width="21.82" height="60" as="geometry" />
        </mxCell>
        <mxCell id="LX6SoAROBL8JEhYAQU-P-5" value="request" style="edgeStyle=orthogonalEdgeStyle;rounded=0;orthogonalLoop=1;jettySize=auto;html=1;" edge="1" parent="1" source="LX6SoAROBL8JEhYAQU-P-3" target="LX6SoAROBL8JEhYAQU-P-1">
          <mxGeometry relative="1" as="geometry" />
        </mxCell>
        <mxCell id="LX6SoAROBL8JEhYAQU-P-8" value="" style="group" vertex="1" connectable="0" parent="1">
          <mxGeometry x="480" y="130" width="60" height="100" as="geometry" />
        </mxCell>
        <mxCell id="LX6SoAROBL8JEhYAQU-P-6" value="" style="shape=datastore;whiteSpace=wrap;html=1;" vertex="1" parent="LX6SoAROBL8JEhYAQU-P-8">
          <mxGeometry width="60" height="60" as="geometry" />
        </mxCell>
        <mxCell id="LX6SoAROBL8JEhYAQU-P-7" value="LTA Database" style="text;html=1;align=center;verticalAlign=middle;whiteSpace=wrap;rounded=0;" vertex="1" parent="LX6SoAROBL8JEhYAQU-P-8">
          <mxGeometry y="70" width="60" height="30" as="geometry" />
        </mxCell>
        <mxCell id="LX6SoAROBL8JEhYAQU-P-12" value="response" style="edgeStyle=orthogonalEdgeStyle;rounded=0;orthogonalLoop=1;jettySize=auto;html=1;entryX=0.5;entryY=1;entryDx=0;entryDy=0;" edge="1" parent="1" source="LX6SoAROBL8JEhYAQU-P-10" target="LX6SoAROBL8JEhYAQU-P-2">
          <mxGeometry x="-0.3333" relative="1" as="geometry">
            <mxPoint as="offset" />
          </mxGeometry>
        </mxCell>
        <mxCell id="LX6SoAROBL8JEhYAQU-P-10" value="LLM Engine" style="rounded=0;whiteSpace=wrap;html=1;fillColor=#dae8fc;strokeColor=#6c8ebf;" vertex="1" parent="1">
          <mxGeometry x="250" y="260" width="120" height="60" as="geometry" />
        </mxCell>
        <mxCell id="LX6SoAROBL8JEhYAQU-P-19" value="API" style="edgeStyle=orthogonalEdgeStyle;rounded=0;orthogonalLoop=1;jettySize=auto;html=1;startArrow=classic;startFill=1;exitX=0.07;exitY=0.4;exitDx=0;exitDy=0;exitPerimeter=0;" edge="1" parent="1" source="LX6SoAROBL8JEhYAQU-P-21" target="LX6SoAROBL8JEhYAQU-P-10">
          <mxGeometry x="0.0061" relative="1" as="geometry">
            <mxPoint x="460" y="290.0000000000001" as="sourcePoint" />
            <mxPoint as="offset" />
          </mxGeometry>
        </mxCell>
        <mxCell id="LX6SoAROBL8JEhYAQU-P-21" value="LLM" style="ellipse;shape=cloud;whiteSpace=wrap;html=1;" vertex="1" parent="1">
          <mxGeometry x="470" y="268" width="91" height="52" as="geometry" />
        </mxCell>
      </root>
    </mxGraphModel>
  </diagram>
</mxfile>
